<svg version="1.1" xmlns="http://www.w3.org/2000/svg" viewBox="0 0 426 319" width="852" height="638">
  <!-- svg-source:excalidraw -->
  
  <defs>
    <style>
      @font-face {
        font-family: "Virgil";
        src: url("https://excalidraw.com/Virgil.woff2");
      }
      @font-face {
        font-family: "Cascadia";
        src: url("https://excalidraw.com/Cascadia.woff2");
      }
    </style>
  </defs>
  <rect x="0" y="0" width="426" height="319" fill="#ffffff"></rect><g stroke-linecap="round" transform="translate(10 10) rotate(0 203 149.5)"><path d="M0 0 C0 0, 0 0, 0 0 M0 0 C0 0, 0 0, 0 0 M-0.53 6.63 C1.32 4.23, 3.04 2.2, 5.03 0.56 M-0.62 6.63 C1.59 3.99, 3.45 1.49, 4.8 0.52 M1.43 13.35 C4.02 9.12, 4.81 4.89, 12.05 -1.34 M0.45 11.82 C1.56 9.77, 4.95 7.2, 10.67 -0.51 M-0.1 18.53 C3.49 13.44, 9.37 10.22, 14.73 -0.71 M-0.72 18.44 C5.39 11.45, 10.27 5.56, 14.75 0.79 M-0.43 23.75 C5.9 19.62, 8.45 14.03, 22.26 -0.22 M-0.31 24.36 C6.32 17.91, 12.42 10.58, 21.8 0.14 M-1.67 31.71 C5.98 24.45, 14.19 16.28, 25.88 1.82 M0.1 31.12 C5.99 23.12, 12.59 15.44, 26.61 -0.63 M-0.54 36.98 C7.01 29.21, 13.88 20.97, 30.05 -1.34 M-1.1 36.16 C8.3 26.47, 17.43 15.04, 31.54 -0.9 M1.73 43.85 C15.6 26.65, 30.44 11.57, 37.28 2.15 M-0.8 42.82 C14.23 26.79, 27.7 10.26, 36.96 -0.53 M-0.91 49.96 C12.51 35.15, 23.13 22.8, 41.03 -0.02 M0.51 49.46 C15.46 30.85, 31.87 11.07, 43.14 -0.02 M0.95 56.31 C13.46 39.1, 26.29 23.88, 46.15 -0.95 M0 54.06 C12.11 40.7, 25 26.3, 46.67 0.31 M0.63 62.59 C19.28 41.8, 35.8 22.01, 53.86 -1.24 M0.91 61.04 C12.54 46.27, 27.53 30.32, 52.35 0.22 M-0.36 69.25 C24.07 38.69, 43.91 14.45, 58.15 -1.69 M-0.2 67.87 C22.05 42.2, 43.02 17.27, 57.62 0.33 M-0.61 73.03 C24.18 48.6, 45.07 23.66, 62.72 -1.96 M0.2 72.16 C13.1 58.93, 26.66 43.81, 64.44 0.02 M-1.1 80.58 C23.61 49.96, 49.71 21.77, 69.43 -1.26 M-0.65 79.75 C24.02 50.77, 47.28 25.25, 69.71 0.22 M1.13 84.47 C26.52 55.96, 54.74 24.55, 75.22 -1.07 M0.44 84.3 C20.07 62.22, 38.7 41.14, 75.19 -0.71 M-0.67 92.52 C15.14 71.37, 34.22 54.5, 80.59 -1.8 M-0.01 91.17 C22.31 66.55, 43.64 39.59, 79.87 -0.12 M-0.58 95.88 C25.79 68.51, 51.72 40.25, 86.47 -1.48 M0.1 96.95 C22.8 69.51, 47.45 43.89, 85.9 0.7 M1.64 102.56 C23.89 76.02, 42.81 51.13, 90.72 -0.44 M-0.82 103.61 C23.22 77.76, 45.25 52.22, 91.01 -0.53 M0.3 109.03 C21.52 88.19, 41.83 63.33, 97.02 -0.03 M-0.4 109.57 C22.62 85.94, 43.2 60.25, 96.39 0.64 M0.03 114.23 C38.97 69.83, 79.21 24.51, 99.36 0.74 M0.95 116.28 C22.68 90.23, 44.87 66.04, 101.11 0.37 M0.27 122.94 C42 71.03, 82.53 25.04, 106.91 -1.55 M0.43 121.1 C33.04 84.29, 65.16 45.76, 106 0.23 M-0.51 127.82 C31.51 91.99, 61.94 57.43, 112.53 0.68 M0.14 127.86 C33.91 90.98, 65.4 53.77, 112.1 0.19 M-1.03 132.94 C38.98 89.25, 77.25 43.34, 116.99 -0.06 M0.73 133.97 C30.38 99.44, 59.27 65.3, 115.9 1.09 M0.47 139.41 C37.86 95.87, 76.66 48.7, 120.72 1.35 M0.11 140.52 C31.74 102.54, 65.8 64.39, 120.99 -0.2 M0.52 145.38 C42.36 99.72, 78.95 56.47, 125.53 0.16 M-0.32 145.85 C25.76 114.47, 52.52 85.3, 126.78 1.31 M0.8 151.49 C32.37 112.19, 66.12 74.48, 132.84 1.58 M-0.22 151.52 C43.19 100.91, 88.04 49.36, 132.73 0.24 M-1.05 160.21 C27.6 123.23, 57.94 89.96, 138.23 -0.73 M-0.21 159.32 C29.73 124.13, 61.86 87.95, 137.82 0.88 M0.75 163.51 C58.85 99.03, 114.26 35.71, 142.53 -0.03 M1 164.67 C45.08 110.47, 91.79 58.32, 143.38 -0.06 M-1.48 170.88 C51.08 108.18, 103.69 49.98, 149.11 0.19 M0.49 170.31 C32.38 136.28, 64.3 98.11, 148.47 0.12 M-0.09 175.29 C58.79 110.84, 117.21 41.3, 153.36 -0.84 M-0.11 177.13 C38.18 133.31, 76.37 90.62, 153.12 -0.57 M-0.21 181.36 C63.1 109.35, 126.85 39.02, 157.93 0.54 M-0.31 182.53 C60.43 111.69, 121.63 42.6, 158.71 0.49 M-1.49 188.99 C38.54 143.82, 80.14 96.4, 165.52 0.81 M-0.64 188.57 C35.26 150.64, 69.12 110.57, 164.51 0.21 M0.97 193.67 C44.81 147.16, 87.6 95.55, 170.38 1.49 M0.13 194.74 C63.57 119.39, 127.77 47.11, 169.72 0.7 M1.39 201.21 C55.57 137.49, 110.6 73.36, 174.8 0.83 M0.3 201.88 C44.67 150.02, 89.59 98.73, 175.08 0.58 M-0.7 207.26 C38.63 162.15, 74.71 121.25, 180.14 -0.62 M-0.44 207.61 C65.12 133.77, 128.98 59.28, 179.82 -0.6 M-0.13 212.59 C60.23 143.1, 119.96 73.18, 187.05 1.04 M0.53 213.81 C64.85 140.8, 128.33 66.68, 184.97 0.02 M1.12 218.64 C71.41 137.77, 142.11 56.67, 190.32 0.1 M-0.89 220.36 C57.37 151.11, 116.67 83.99, 190.2 0.52 M1.31 226.03 C62.87 152.44, 121.7 84.6, 197.38 0.81 M-0.12 225.82 C73.33 141.61, 145.04 57.6, 195.77 -0.27 M1.08 232.09 C47.91 177.27, 93.43 125.27, 201.78 1.53 M0.21 231.8 C68.25 153.27, 138.01 72.57, 200.81 -0.01 M-1.07 236.92 C64.35 161.7, 128.27 89.05, 207.57 -1.06 M-0.04 237.58 C67.46 158.2, 136.24 79.69, 206.77 0.19 M-1.31 244.29 C60.67 171.16, 124.96 99.36, 212.09 -0.95 M0.23 243.82 C84.87 145.7, 168.56 49.23, 211.28 0.39 M-0.45 250.32 C56.05 186.33, 112.07 121.07, 218.12 0.55 M-0.18 250.07 C81.18 157.55, 161.75 63.06, 217.34 -0.75 M1.13 255.15 C56.23 187.96, 112.49 123.31, 222.86 0.8 M0.16 256.19 C73.77 172.96, 145.62 90.48, 222.95 -0.23 M-1.29 261.81 C67.12 183.27, 138.15 103.5, 227.15 -1.09 M-0.46 261.8 C75.09 174.34, 152.01 85.89, 227.62 -0.19 M-0.63 269.08 C53.67 203.58, 110.31 140.17, 232.52 0.88 M0.21 268.25 C50 215.16, 96.59 160.18, 232.81 -0.53 M0.58 274.76 C66.1 198.61, 133.15 122.35, 238.97 -0.28 M-0.38 274 C51.44 213.21, 102.66 153.83, 238.33 0.22 M-1.04 281.38 C74.44 195.04, 150.92 105.91, 243.13 0.46 M-0.06 280.32 C58.96 212.89, 117.8 144.25, 243.55 0.5 M0.46 285.35 C56.83 221.48, 114.34 155.52, 249.73 0.31 M0.17 286.9 C75.48 200.45, 150.96 113.24, 248.95 0.07 M-0.38 292.41 C55.65 228.29, 112.87 163.16, 253.76 0.54 M0.22 292.44 C68.69 215.04, 136.46 136.52, 254.81 -0.61 M1.04 297.34 C80.94 209.28, 159.58 117.03, 260.48 0.99 M-0.19 298.81 C62.24 228.29, 124.7 157.09, 259.6 0.04 M3.41 302.11 C64.87 229.42, 128.1 156.62, 264.42 0.88 M2.68 301.52 C62.73 231.83, 123.87 162.34, 265.43 -0.12 M8.82 301.5 C70.88 228.29, 135.06 154.72, 270.71 0.9 M7.75 301.31 C100.59 195.24, 192.3 88.43, 270.39 0.75 M13.71 301.39 C94.22 209.86, 172.87 116.97, 274.85 -0.95 M12.82 301.49 C93.65 209.14, 173.26 118.82, 275.24 0.08 M19.25 301.66 C97.8 208.97, 178.27 118.94, 281.26 -0.26 M18.61 301.4 C107.46 198.86, 196.21 96.19, 280.3 0.72 M24.44 301.49 C106.22 206.55, 187.13 115.42, 285.62 0.54 M24.1 301.51 C125.43 184.68, 226.15 69.55, 286.53 0.36 M28.89 302.01 C114.12 202.83, 199.89 102.64, 290.98 1.19 M29.91 301.76 C130.02 186.26, 229.04 72.59, 291.18 0.29 M35.37 301.75 C133.36 184.9, 234.41 70.25, 297 -0.48 M35.07 301.27 C137.41 181.21, 240.82 62.22, 296.83 -0.77 M41.23 301.5 C110.21 219.87, 179.46 138.4, 302.41 0.43 M40.42 301.34 C93.77 237.72, 149.16 174.69, 301.45 -0.07 M45.43 302.1 C100.31 235.25, 157.83 170.88, 307.83 0.41 M45.4 301.69 C146.96 185.76, 246.87 70.66, 307.35 -0.44 M51.45 300.21 C122.24 217.53, 195.64 133.58, 311.51 1.16 M50.31 301.21 C115.88 227.92, 180.33 152.59, 312.39 -0.32 M56.06 301.94 C149.64 194.28, 242.48 86.3, 318.9 0.82 M55.36 302.14 C110.31 239.68, 164.99 176.6, 317.87 0.1 M61.29 300.51 C116.68 237.94, 170.75 176.38, 322.5 0.86 M61.76 301.73 C139.79 211.59, 216.24 123.16, 323.04 -0.28 M65.56 301.23 C142.72 215.81, 219.9 127.68, 329.59 -0.46 M66.32 302.12 C139.28 221.15, 209.66 138.63, 328.49 -0.53 M71.03 301.39 C155.87 204.5, 240.01 107.94, 333.01 1.02 M71.55 300.83 C128.73 236.84, 183.63 173.64, 334.12 -0.22 M77.05 301.65 C172.45 193.33, 265.91 83.66, 338.94 -0.13 M76.87 301.83 C177.23 187.83, 277.62 72.52, 339.03 0.1 M82.27 302.59 C177.39 188.27, 275.16 77.67, 344.38 -0.84 M82.37 302.17 C143.71 230.87, 204.64 160.31, 344.1 -0.25 M88.22 300.94 C159.89 218.45, 230.54 138.69, 348.46 0.26 M87.85 301.6 C159.81 216.71, 233.91 132.47, 348.94 0.48 M92.6 302.77 C173.76 205.5, 257.69 110.71, 355.92 -0.95 M92.33 302.43 C168.07 216.89, 240.95 132.32, 355.44 0.18 M99.33 300.83 C193.11 191.93, 287.02 84, 359.07 1.42 M98.43 301.33 C183.33 203.65, 269.19 105.28, 360.49 0.66 M104.13 302.85 C159.96 237.54, 217.23 172.07, 366.07 0.53 M102.98 302.11 C164.56 232.02, 225.62 161.71, 366.06 -0.48 M109.75 301.35 C193.84 201.67, 281.36 102.62, 370.53 0.67 M108.89 301.05 C163.88 238.09, 219.15 175.17, 370.9 0.54 M113.7 301.89 C201.88 202.53, 289.79 102.36, 375.84 0.59 M113.43 301.96 C180.18 224.83, 246.16 147.67, 376.73 0.3 M119.1 301.99 C204.69 203.4, 292.64 104.06, 380.69 -0.85 M120.11 301.5 C179.84 229.15, 241.46 158.3, 381.14 0.82 M124.61 301.23 C185.94 231.29, 247 160.65, 387.58 -0.89 M124.75 301.99 C197.31 218.19, 270.25 135.68, 387.1 -0.47 M130.7 300.55 C199.36 222.51, 268.88 141.7, 392.79 -0.86 M130.71 301.27 C191.68 229.11, 253.16 158.92, 392.49 -0.25 M134.2 301.09 C209.98 215.38, 282.77 130.95, 397.17 -0.07 M134.95 302.07 C215.87 210.38, 294.17 120.28, 397.37 -0.56 M141.31 301.11 C213.04 217.12, 285.94 132.18, 402.95 0.68 M141.01 300.78 C211.47 222.89, 281.1 142.36, 402.55 0.57 M146.32 301.72 C236.43 198.27, 324.92 97.39, 407.32 2.19 M146.25 301.35 C227.82 207.38, 309.92 112.45, 406.47 1.65 M151.37 301.51 C228.57 217, 303.48 130.91, 406.72 7.19 M151.35 301.76 C228.28 211.96, 306.99 122.77, 407.87 7.49 M156.57 302.27 C228.75 217.82, 299.45 136.96, 407.72 14.34 M156.67 301.07 C249.14 195.07, 340.77 89.95, 407.35 13.77 M161.54 301.29 C221.11 231.96, 283.53 160.83, 406.6 18.31 M162.68 300.85 C250.08 199.58, 338.62 98.6, 407.31 19.05 M167.06 301.82 C233.25 225.71, 299.48 150.5, 406.27 25.63 M167.33 301.88 C233.93 222.38, 301.3 144.56, 407.73 24.92 M171.65 300.53 C236.31 231.44, 297.3 159.79, 406.35 32.06 M172.35 300.66 C255.29 207.87, 336.92 113.85, 407.39 31.83 M178.59 300.56 C245.43 224.21, 312.54 145.18, 407 37.83 M177.28 301.79 C261.52 204.66, 345.65 107.82, 407.84 36.86 M184.47 301.36 C249.81 225.73, 315.55 150.37, 406.71 44.62 M183.21 301.08 C233.67 242.37, 284.23 185.01, 406.83 43.47 M189.03 301.49 C234.42 249.44, 280.18 194.85, 408.17 48.33 M187.82 301.66 C250.31 229.34, 314.35 157.63, 407.94 49.1 M193.87 301.42 C247.67 239.51, 300.94 176.61, 407.36 55.46 M194.49 300.75 C250.94 237.11, 306.38 173.79, 407.8 56.31 M199.73 301.07 C259.15 230.44, 320.72 161.32, 407.41 62.59 M199.38 300.88 C280.5 206.33, 363.14 112.27, 407.03 62.68 M203.87 300.9 C263.02 230.56, 324.1 162.55, 408.31 68.86 M203.9 301.18 C275.7 218.98, 348.48 135.3, 407.53 68.42 M208.98 301.03 C273.89 229.66, 335.71 156.82, 405.84 73.61 M209.2 300.8 C251.47 253.17, 293.26 204.64, 407.46 73.66 M214.13 301.42 C279.74 225.11, 349.34 146.58, 407.67 79.35 M213.88 301.89 C277.88 229.27, 339.9 156.43, 407.63 80.31 M218.93 301.93 C271.01 240.17, 323.93 180.71, 405.99 87.2 M220.55 301.2 C280.75 232.26, 341.36 160.96, 407.53 87 M225.55 300.39 C291.89 226.32, 358.99 148.09, 408.41 93.78 M225.83 301.17 C262.36 256.88, 302.05 213.4, 407.42 92.38 M231.66 301.25 C271.64 254.94, 315.25 207.01, 407.19 97.41 M230.51 300.88 C286.14 239.11, 341.05 176.5, 407.6 98.28 M235.45 301.18 C283.3 245.12, 331.67 192.38, 407.56 103.25 M235.76 301.15 C301.82 226.13, 367.15 149.94, 406.97 104.1 M240.96 301.02 C286.17 248.19, 331.83 196.88, 409.03 109.64 M241.05 301.47 C276.77 262.26, 310.62 223.99, 407.32 109.96 M247.8 300.27 C285.47 256.24, 325.53 211.38, 405.75 116.64 M246.52 301.98 C284.33 257.76, 321.77 214.79, 407.11 116.3 M252.74 300.23 C310.78 229.85, 373.48 161.8, 405.73 121.63 M252.32 302.09 C286.41 263.18, 320.76 223.47, 407.3 122.44 M255.57 301.31 C314.67 236.91, 373.1 170.96, 405.73 127.87 M257.98 302.33 C297.92 253.23, 338.87 207.8, 406.6 128.82 M261.14 302.98 C313.45 245.11, 362.39 185.21, 407.09 134.49 M263.2 301.5 C296.36 260.02, 331.76 219.94, 407.7 134.87 M268.77 300.58 C305.76 254.7, 344.64 210.85, 406.6 140.63 M267.36 301.78 C301.63 264.61, 333.37 227.59, 407.08 140.38 M273.35 299.57 C304.61 263.17, 336.26 228.27, 406.37 145.75 M273.78 300.78 C318.72 247.68, 363.5 195.4, 406.58 147.18 M279.32 302.08 C312.52 267.08, 341.49 230.74, 408.11 154.49 M278.84 301.9 C327.08 245.53, 376.03 189.61, 406.56 153.67 M284.08 299.27 C329.32 250.34, 372.78 199.17, 408.28 158.12 M284.7 300.83 C313.49 265.99, 344.33 231.37, 407.1 159.59 M289.38 301.79 C319.7 266.48, 350.37 234.91, 407.41 166.37 M288.52 301.79 C335.35 249.19, 382.75 194.54, 406.39 166.34 M294.46 301.81 C329.33 262.54, 359.83 223.87, 408.81 172.3 M294.06 301.64 C323.28 267.95, 351.21 234.1, 407.22 170.52 M300.44 300.21 C325.34 272.43, 351.79 243.26, 408.89 177.51 M300.15 300.74 C329.91 266.51, 360.55 230.38, 406.36 177.79 M307.29 299.86 C326.82 274.69, 353.19 249.36, 407.4 184.15 M304.6 300.68 C342.58 257.14, 379.43 214.5, 406.81 184.44 M310.27 300.98 C347.37 259.77, 386.71 214.12, 409.21 188.47 M310.56 301.26 C338.98 269.41, 366.31 237.79, 406.48 189.46 M316.19 303.13 C338.75 272.8, 364.08 247.29, 407.98 196.46 M315.86 300.95 C346.43 265.42, 375.4 232.18, 407.87 195.74 M319.15 300.81 C337.82 282.96, 355.56 261.62, 406.49 201.83 M320.59 302.09 C350.68 266.77, 380.71 233.57, 407.3 202.52 M326.24 301.05 C348.64 277.67, 370.4 251.15, 409.03 209.36 M325.88 300.93 C355.86 268.09, 386.39 234.17, 407.38 208.36 M331.83 303.42 C356.51 276.55, 379.14 248.47, 405.68 212.96 M332.09 301.22 C351.32 280.36, 368.44 259.34, 406.2 215.63 M336 301.38 C355.71 281.47, 375.04 258.68, 408.1 219.22 M336.24 302.08 C356.72 277.49, 377.1 255.77, 407.04 219.69 M343.49 301.57 C366.85 271.25, 391.29 244.07, 407.16 225 M342.92 300.84 C362.02 280.04, 380.66 258.53, 407.06 226.92 M346.14 301.13 C360.9 285.67, 375.71 267.75, 407.27 233.45 M347.69 300.87 C367.51 278.24, 389.11 252.86, 407.55 232.36 M353.82 303.04 C368.39 283.27, 380.71 266.49, 408.79 239.37 M351.99 300.42 C373.54 277.61, 393.79 251.96, 407.31 239.53 M356.84 301.37 C372.26 284.34, 387.32 270.02, 406.37 245.25 M358.51 302.48 C368.66 289.5, 380.45 275.74, 406.96 246 M364.95 300.65 C374.67 288.34, 384.46 273.91, 406.59 250.8 M364.18 301.62 C380.47 282.55, 397.63 262.58, 407.55 251.55 M369.72 301.16 C381.46 288.73, 394.01 274.44, 407.72 256.59 M367.48 301.84 C376.79 291.97, 386.55 280.79, 406.31 257.21 M375.5 302.25 C386.06 286.66, 397.49 273.89, 407.36 262.78 M373.41 301.37 C386.94 287.19, 400.63 271.04, 407.22 262.6 M377.87 303.64 C388.1 292.79, 395.46 280, 406.12 268.72 M378.89 302.59 C386.55 292.69, 394.1 285.46, 406.7 269.07 M386.55 300.73 C389.92 292.8, 398.25 284.5, 405.36 274.56 M385.63 300.81 C393.03 292.92, 400.75 282.07, 406.28 275.74 M387.86 301.95 C394.88 294.68, 399.61 288.79, 405.47 281.19 M389.57 302.14 C394.79 296.95, 399.4 291.15, 406.88 281.15 M395.61 300.12 C397.57 296.39, 401.83 291.78, 408.21 287.7 M395.73 300.42 C398.48 296.74, 402.74 292.83, 406.3 287.1 M401.02 301.43 C403.55 299.17, 404.35 296.24, 407.21 294.7 M400.08 302.11 C402.66 298.09, 406.07 295.11, 406.93 294.04 M-0.12 298.89 C-0.12 298.89, -0.12 298.89, -0.12 298.89 M-0.12 298.89 C-0.12 298.89, -0.12 298.89, -0.12 298.89 M6.27 298.83 C4.26 298.72, 3.45 297.02, 0.82 293.55 M6.12 299.26 C4.34 297.47, 2.94 296.12, -0.13 293.54 M11.85 297.57 C8.26 294.91, 1.33 288.95, 0.47 289.64 M12.02 298.84 C9.44 296.73, 5.99 294.53, -0.63 287.7 M19.26 297.23 C11.67 295.47, 10.62 290.17, 2.01 281.35 M18.81 299.94 C12.23 294.41, 7.49 290.17, 0.45 283.84 M25.2 299.24 C17.6 296.03, 12.43 290.62, 1.5 275.68 M24.98 298.81 C20.1 294.87, 13.93 290.27, 0.64 276.89 M31.02 300.83 C21.85 291.38, 9.24 280.25, -0.33 274.49 M29.42 298.16 C20.19 289.05, 10.54 281.91, 0.57 273.54 M38.74 299.31 C26.59 294.09, 18.5 285.3, -0.33 266.28 M37.03 300.05 C24.06 288.01, 12.52 277.21, 0.62 266.97 M41.47 298.47 C29.03 289.53, 19.24 276.36, -1.06 261.13 M42.1 299.15 C24.9 284.06, 9.95 270.14, 0.52 262.83 M47.1 299.19 C36.3 289.28, 23.98 274.25, -1.12 256.73 M48 298.81 C32.55 283.77, 14.99 270.19, -0.07 255.8 M56.74 298.13 C37.44 283.05, 24.06 271.59, 0.56 252.98 M54.53 298.35 C33.12 280.47, 11.48 260.56, 0.16 251.7 M60.64 298.99 C39.37 276.9, 14.06 256.98, -1.63 246.02 M59.9 299.86 C38.07 279.52, 13.93 259.43, -1.21 246.09 M68.17 297.86 C45.88 280.77, 20.41 259.23, -0.27 238.81 M67.61 299.99 C51.83 285.62, 37.77 273.87, -0.64 240.35 M72.19 299.85 C52.91 278.08, 29.6 261.63, -1.19 235.17 M72.82 298.24 C43.87 274.17, 16.98 249.61, -0.03 234.29 M78.82 299.71 C61.93 284.11, 41.25 264.72, 0.14 230.4 M79.04 300 C60.02 282.73, 42.19 266.67, 1.01 230.23 M83.8 298.57 C65.54 280.65, 45.21 262.82, 0.36 225.25 M86.56 298.85 C53.56 272.02, 22.2 244.04, -0.27 223.6 M90.48 297.13 C63.94 273.4, 34.64 247.58, -0.09 220.56 M91.28 298.36 C58.14 269.68, 25.12 241.85, 0 219.02 M97.73 299.04 C59.91 266.88, 26.19 236.79, 1.41 215.97 M96.72 298.88 C70.53 276.37, 45.25 254.81, -0.39 213.58 M102.39 297.56 C73.41 275.47, 47.37 249.26, 1.66 209.16 M103.3 298.82 C83.93 281.14, 62.84 261.91, 0.26 209.64 M110.97 298.14 C77.75 272.61, 49.33 245.08, 1.54 205.16 M110.14 298.72 C85.79 277.98, 60.23 256.17, 0.41 204.6 M118.04 301.15 C76.51 262.1, 35.32 228.45, -1.53 197.07 M116.34 298.5 C75.75 264.09, 36.32 228.88, -0.29 199.22 M122.22 297.13 C82.39 263.61, 42.45 231.93, 0.07 194.61 M120.96 298.32 C80.48 263.53, 39.88 227.49, -0.32 192.69 M128.11 300.11 C81.1 257.43, 34.05 214.82, -0.12 188.21 M127.9 298.3 C99.6 272.84, 72.31 250.07, -0.69 188.17 M134.67 300.29 C90.18 259.69, 47.15 223.09, -0.96 181.51 M134.31 298.88 C96.58 266.52, 59.68 233.76, -0.23 181.97 M140.99 300.65 C107.89 270.28, 74.75 244.3, -2.07 175.51 M139.25 299.81 C102.79 267.07, 65.99 234.65, 0.02 177.09 M146.69 297.61 C113.76 270.51, 81.28 241.83, 1.94 173.06 M146.09 298.48 C106.37 262.42, 64.97 226.57, -0.48 172.32 M153.67 298.41 C109.46 261.9, 68.06 226.3, 0.95 166.89 M151.5 299.61 C96.24 248.69, 39.54 198.71, -0.18 165.89 M158.88 300 C118.02 262.48, 74.84 226.67, -0.21 160.6 M158.92 298.56 C95.35 243.45, 33.34 188.22, -0.6 162.21 M163.36 297.09 C108.81 252, 54.75 202.29, 0.23 155.57 M164.87 299.29 C128.62 267.53, 92.83 237.2, 0.59 156.4 M172.36 298.01 C105.74 243.91, 39.33 184.81, 0.78 149.33 M169.98 298.52 C104.64 241.98, 38.31 183.95, -0.01 150.36 M176.15 298.55 C137.33 265.26, 96.86 230.54, -0.88 145.29 M177.6 298.73 C117.59 248.76, 57.41 195.38, -0.3 144.51 M181.25 299.15 C143.75 266.55, 102.26 229.9, 1.08 140.16 M182.12 298.55 C137.75 259.8, 91.24 219.57, -0.04 139.46 M188.3 299.38 C139.55 253.97, 84.42 207.65, -0.79 133.57 M188.78 299.87 C141.59 258.95, 93.42 216.92, -0.22 134.97 M195.22 297.87 C132.12 244.55, 72.11 191.85, -1.35 129.13 M194.6 298.94 C137.05 247.45, 79.04 195.68, 0.1 130.06 M199.78 300.01 C158.61 258.41, 113.75 218.1, -0.92 123.78 M201.68 299.68 C129.53 236.15, 57.97 174.11, -0.81 123.46 M208.33 298.53 C144.68 244.31, 80.73 188.78, 0.63 119.03 M208.34 299.99 C147.53 248.42, 89.72 198.03, 0.71 118.54 M212.52 300.24 C150.49 243.78, 88.02 188.62, -0.6 113.54 M213.56 298.54 C168.21 259.42, 123.58 221.28, -0.43 112.46 M221.05 297.83 C137.48 230.6, 57.6 161.15, -0.68 107.82 M218.94 298.78 C166.86 251.6, 112.51 203.37, -0.54 107.56 M226.36 298.49 C148.82 234.14, 74.53 169.55, 1.83 103.67 M225.34 298.09 C169.97 250.92, 113.62 203.37, 0.9 102.78 M230.44 299.76 C159.78 237.33, 88.38 173.8, -0.77 96.65 M231.22 298.33 C162.63 239.09, 93.79 180.17, -0.24 97.07 M238.68 299.72 C174.82 245.49, 111.67 190.76, 1.69 93.73 M238.25 299.49 C171.35 241.59, 102.34 181.99, 0.99 91.97 M243.38 299.58 C170 232.91, 94.75 170.01, -0.29 87.92 M243.11 299.49 C188.53 248.96, 132.1 200.89, -0.67 86.84 M248.8 299.54 C191.9 249.55, 134.88 200.15, 0.12 81.75 M250.17 298.95 C198.63 252.93, 146.61 207.02, 0.73 81.92 M255.39 297.92 C157.61 212.38, 56.87 127.59, -0.15 75.66 M256.17 298.42 C182.83 234.64, 109.54 171.99, -0.07 75.81 M263.11 298.59 C193.63 235.77, 123.01 175.54, -0.97 71.39 M262.32 299.4 C192.18 236.75, 121.33 175.11, 0.22 71.19 M267.54 299.21 C179.54 220.73, 90.73 144.45, -0.19 66.4 M268.66 299.1 C211.26 247.32, 152.87 196.27, -0.48 65.48 M274.74 298.17 C215.99 247.1, 156.24 196.26, 0.39 60.14 M274.16 298.86 C219.61 251.59, 163.1 202.18, 0.22 60.62 M281.34 299.82 C176.97 212.04, 74.47 124.1, -0.61 55.8 M280.04 298.86 C220.35 247.75, 161.75 196.56, -0.25 55.12 M287.16 299.37 C225.89 244.64, 162.44 190.8, 0.07 48.89 M286.15 298.51 C197.86 219.02, 107.66 140.15, 0.16 49.86 M292.12 299.05 C216.58 229.16, 139.46 161.89, -0.7 43.8 M293.07 298.53 C185.35 207, 77.4 112.61, -0.02 43.96 M298.03 300.32 C236.7 243.01, 171.26 188.28, -0.51 40.17 M298.6 298.68 C185.57 200.67, 71.6 100.86, 0.13 39.29 M304.59 299.72 C224.91 229.73, 143.34 159.57, -0.15 34.84 M304.37 298.96 C238.34 242.66, 172.2 185.72, -0.59 34 M311.73 299.8 C232.34 228.03, 152.65 159.15, 1.19 27.8 M311.52 299.29 C201.03 201.17, 90.01 106.3, 0.24 28.31 M317.58 298.32 C203.97 201.87, 92.17 105.15, -0.1 22.98 M316.52 298.82 C252.56 241.28, 189.17 185.81, -0.24 23.56 M322.13 299.65 C196.77 191.29, 71.97 83.3, -0.84 18.76 M323.03 298.75 C238.35 227.1, 154.62 154.7, 0.05 18.07 M329.06 300.23 C211.41 196.89, 95.08 96.63, 0.29 13.54 M329.82 299.31 C262.14 239.05, 194.36 178.93, 0.2 12.63 M335.21 298.84 C216.07 195.67, 99.42 92.07, -0.39 7.36 M334.69 298.54 C236.75 213.7, 138.43 127.5, 0.2 7.66 M342.24 298.88 C250.98 221.5, 160.97 143.44, 0.5 2.19 M341.47 298.75 C265.01 231.59, 187.44 164.99, -0.68 2.07 M347.12 299.4 C241.66 205.22, 136.2 115.21, 1.83 -2.67 M347.1 298.81 C233.13 198.39, 118.47 97.96, 1.32 -1.76 M352.76 299.34 C246.25 206.12, 138.49 113, 8.17 -1.9 M353.45 298.95 C258.98 215.23, 162.95 132.2, 7.7 -1.72 M360.64 300.09 C258.12 210.04, 155.14 122.54, 14.16 -2.81 M360.38 298.87 C284.18 232.21, 208.8 166.47, 13.55 -1.45 M366.37 298.66 C261.67 210.15, 160.29 122.45, 20.62 -1.87 M365.94 299.23 C259.63 206.54, 153.34 113.41, 20.35 -1.71 M371.24 298.74 C243.55 187.09, 114.81 74.58, 25.56 -1.99 M371.78 298.78 C279.72 218.68, 185.54 137.7, 25.96 -1.95 M377.68 299.15 C290.64 221.14, 205.08 146.32, 31.91 -2.04 M377.73 298.63 C279.01 213.24, 180.12 127.54, 31.93 -1.72 M383.91 298.88 C283.41 210.26, 180.84 122.89, 39.31 -0.71 M384.34 299.01 C252.31 185.26, 121.48 70.3, 38.04 -1.08 M390.73 298.63 C261.13 187.79, 133.06 74.88, 44.33 -2.48 M390.28 298.78 C284.1 208.92, 179.31 118.36, 43.93 -1.52 M396.08 298.75 C322.71 234.42, 248.69 168.77, 51.03 -1.86 M395.85 299.26 C286.77 205.33, 178.1 110.35, 50.28 -1.75 M401.89 299.98 C297.01 207.49, 193.12 117.84, 56.15 -1.4 M402.29 299.02 C308.87 217.63, 213.56 134.97, 55.72 -2.36 M407.91 297.81 C270.27 181.4, 134.79 63.74, 61.6 -2.15 M407.86 297.99 C333.75 233.22, 259.77 168.9, 62.66 -2.02 M407.18 292.63 C326.82 222.44, 247.77 155.04, 69 -0.97 M407.22 292.29 C327.4 224.13, 247.71 154.19, 68.6 -1.23 M406.65 287.96 C311.67 202.82, 216.7 119.13, 75.23 -1.22 M407.64 287.82 C310.09 202.79, 214.36 119.11, 74.86 -1.87 M406.99 281.52 C335.52 217.54, 264.85 154.08, 79.99 -1.66 M406.88 281.61 C325.2 209.27, 242.47 137.14, 80.45 -1.45 M406.95 276.22 C325.32 206.23, 241.14 132.63, 85.71 -2.17 M406.84 276.94 C303.42 186.94, 199.09 96.63, 86.52 -2.16 M406.16 271.72 C324.21 200.42, 243.49 129.12, 93.36 -0.77 M406.51 271.49 C311.3 187.76, 214.3 104.2, 92.64 -1.67 M407.08 266.89 C323.82 193.49, 240.72 120.36, 99.76 -2.05 M407.24 266.5 C289.94 163.93, 171.51 60.55, 99.6 -1.47 M407.64 259.52 C286.73 157.61, 165.54 52.29, 103.92 -2.57 M406.42 261.03 C342.79 204.87, 279.23 148.82, 104.52 -1.77 M406.91 255.91 C296.72 158.74, 182.66 59.88, 110.62 -1.06 M407.26 255.99 C319.28 178.96, 231.62 102.64, 111.76 -1.25 M406.93 250.58 C336.11 187.66, 267.67 128.69, 118.2 -1.54 M406.98 249.31 C320.72 177.22, 234.78 102.67, 116.78 -1.76 M407.2 244.49 C334.92 181.38, 261.64 117.07, 122.76 -2.73 M407.71 244.67 C302.23 151.66, 196.32 59.65, 123.36 -1.45 M406.38 238.64 C339.82 181.09, 274.53 123.26, 129.51 -0.28 M406.78 239.72 C319.49 163.28, 233.73 87.44, 129.46 -1.77 M405.96 234.11 C334.36 171.77, 261.79 108.27, 134.54 -1.18 M406.73 234.63 C328.97 167.01, 251.08 99.14, 135.19 -1.38 M407.81 229.91 C301.08 135.96, 196.98 44.39, 141.41 -2.73 M406.74 228.67 C316.4 149.73, 224.71 70.03, 141.84 -1.65 M407.14 222.58 C308.66 135.73, 208.67 47.28, 146.98 -3.37 M407.72 224.23 C305.13 134.05, 202.68 45.31, 147.58 -2.05 M405.54 217.5 C311.23 136, 215.9 53.01, 154.91 -3.14 M407.28 218.15 C333.56 152.05, 258.53 88.08, 153.93 -1.2 M406.72 212.83 C339.66 156.66, 271.86 98.31, 160.97 -2.31 M407.52 213.4 C351.03 164.02, 295.16 115, 160.28 -1.09 M405.95 208.17 C315.81 127.62, 222.67 47.01, 165.68 -2.53 M406.12 207.83 C313.47 126.75, 219.64 45.8, 166.61 -2.56 M406.78 201.18 C357.68 161.32, 312.3 120.24, 172.62 -1.19 M407.02 201.86 C319.75 127.7, 231.78 50.29, 172.74 -1.19 M408.78 198.05 C343.85 145.06, 282.8 89.39, 177.07 -2.12 M407.89 197.45 C344.53 141.71, 281.9 88.5, 177.64 -1.85 M406.39 192.26 C330.72 123.75, 250.92 57.92, 184.74 -0.82 M406.96 191.35 C358.97 148.37, 310.33 105.62, 183.92 -1.66 M407.14 187.42 C349.83 139.59, 294.34 91.05, 191.79 -1.12 M408.08 186.32 C337.31 125.57, 268.18 65.39, 190.11 -1.69 M405.58 180.67 C347.75 131.73, 287.54 79.97, 196.98 -0.52 M407.04 180.59 C364.48 143.81, 321.09 107.21, 197.09 -1.5 M408.5 174.86 C366.39 139.88, 322.84 103.39, 203.91 -0.67 M407.84 176.78 C339.22 118.79, 272.51 60.76, 203.26 -1.86 M407.18 169.81 C348.19 121.38, 293.11 72.6, 207.74 -1.91 M406.51 170.26 C337.35 111.99, 267.07 50.98, 208.11 -2.57 M406.38 165.35 C342.04 111.72, 280.61 56.12, 213.51 -1.5 M407.7 166.08 C364.16 129.74, 322.12 92.64, 214.28 -1.84 M405.74 158.61 C363.86 120.89, 318.67 83.66, 222.9 -0.35 M406.59 159.3 C342.22 102.87, 276.64 45.49, 222.03 -2 M407.13 153.69 C353 107.58, 301.72 63.07, 226.12 -1.82 M407.41 155.47 C348.36 104.18, 288.94 51.61, 227.01 -1.12 M408.19 149.35 C353.72 101.04, 300.48 54.53, 231.87 -1.97 M406.57 148.82 C359.5 108.21, 311.17 66.68, 233.76 -1.83 M406.32 145.23 C353.66 96.43, 302.94 52.57, 238.92 -1.28 M406.7 144.84 C349.95 95.31, 293.62 46.31, 239.41 -2.83 M406.14 139.32 C361.15 99.52, 314.14 60.12, 246.59 -1.88 M406.09 138.06 C363.42 103.08, 320.99 65.75, 246.14 -1.1 M406.46 134.48 C367.79 99.26, 326.39 63.75, 252.55 -2.39 M407.97 133.39 C358.14 90.13, 308.72 46.53, 251.24 -2.07 M407.83 129.23 C366.52 97, 330.91 61.69, 256.54 -1.56 M406.04 128.77 C371.81 100.17, 338.39 70.4, 257.99 -1.02 M409.14 123.54 C354.12 79.62, 302.96 34.41, 262.95 -0.72 M406.54 122.22 C366.22 87.07, 323.31 52.09, 264.03 -1.06 M408.72 117.57 C370.5 82.14, 328.31 49.94, 269.23 -3.88 M406.3 116.66 C358.06 75.16, 310.74 32.14, 268.63 -2.15 M408.41 113.81 C371.36 79.36, 337.69 49.48, 275.37 -0.74 M407.79 112.06 C367.82 78.65, 328.7 44.58, 275.77 -1.57 M407.12 107.24 C360.65 65.94, 311.93 23.84, 280.36 -2 M405.91 105.98 C380.99 83.96, 354.16 61.15, 282.5 -1.75 M408.56 99.94 C379.74 80.79, 355.38 57.61, 288.16 -2.11 M407.6 101.69 C373.43 70.89, 337.03 40.44, 287.85 -2.43 M406.9 95.09 C371.92 64.35, 336.69 36.35, 295.65 0 M406.54 96.76 C381.39 73.33, 355.65 52.29, 294.72 -1.9 M406.47 91.55 C374.84 63.05, 340.07 34.6, 299.04 -0.34 M406.76 91.16 C379.07 66.16, 351.14 43.22, 299.27 -1.67 M407.41 85.96 C369.56 54.01, 328.89 19.97, 305.57 -2.98 M407.35 85.81 C386.87 67.29, 365.32 47.86, 306.64 -2.47 M405.45 79.26 C378.11 55.69, 346.17 29.54, 311.95 -0.24 M406.08 80.73 C376.18 55.95, 346.47 29.44, 312.29 -0.93 M406.23 75.43 C382.39 53.98, 357.73 34.32, 320.28 -1.64 M406.8 76.28 C385.36 57.11, 365.25 36.43, 317.92 -2.79 M405.31 68.74 C377.19 45.46, 345.35 17.73, 324.04 -0.58 M407.37 69.92 C375.54 43.5, 346.45 16.49, 324.41 -1.08 M406.11 65.1 C377.91 37.97, 352.18 13.64, 328.44 -1.66 M406.58 64.11 C377.89 38.92, 348.5 13.52, 330.19 -1.91 M408.32 58.69 C389.65 41.53, 370.14 26.96, 336.19 -0.11 M406.48 58.48 C385.19 41.98, 363.9 22.46, 335.93 -1.3 M405.58 52.59 C387.54 36.98, 372.2 21.35, 343.89 -1.04 M407.16 54.95 C385.81 34.63, 363.58 15.48, 342.89 -1.01 M405.2 46.81 C387.93 30.74, 370.32 15.54, 348 -2.21 M406.27 49.37 C383.97 30.55, 364.06 10.25, 347.88 -2.67 M405.84 42.89 C393.79 30.23, 376.79 14.5, 356.73 -2.71 M407.79 44.52 C394.72 33.27, 381.22 21.11, 355.18 -1.01 M405.17 39.88 C390.52 26.07, 376.92 12.72, 360.52 -0.25 M407.6 37.81 C390.08 22.19, 372.37 7.77, 361.85 -2.56 M405.59 31.02 C393.03 24.13, 382.88 11.35, 367.74 -0.61 M408.21 32.27 C396.02 24.31, 386.35 14.7, 367.52 -1.61 M405.9 27.69 C393.77 18.43, 383.49 6.45, 375.06 -2.89 M406.36 28.24 C395.05 16.67, 382.18 5.53, 373.67 -0.93 M406.99 24.04 C400.25 13.8, 390.9 6.8, 379.44 -0.28 M407.71 22.39 C397.1 14.61, 387.91 5.01, 379.61 -0.96 M407.53 17.03 C399.12 12.67, 394.4 5.15, 384.09 -2.72 M406.45 17.35 C401.01 11.08, 394.86 7.54, 385.41 -1.99 M405.66 11.02 C403.56 8.08, 395.32 4.4, 390.83 -0.25 M408.05 10.8 C402.33 7.22, 398.82 3.09, 392.21 -1.94 M406.73 5.89 C404.53 5.22, 402.1 1.09, 397.82 -2.15 M406.81 5.45 C404.98 4.24, 402.59 1.4, 397.28 -1.48 M407.49 1.06 C406.82 0.53, 405.69 -0.06, 404.16 -1.53 M407.06 0.88 C406.32 0.23, 405.5 -0.67, 404.29 -1.37" stroke="#be4bdb" stroke-width="0.5" fill="none"></path><path d="M0.18 -0.83 C104 -0.2, 205.95 -1.34, 405.82 0.66 M0.18 -0.29 C133.99 -1.48, 268.19 -2.47, 406.36 0 M404.92 0.91 C406.5 77.23, 408.04 153.53, 406.04 297.58 M405.67 -0.09 C404.37 80.24, 403.37 160.9, 405.91 298.4 M406.74 299.89 C292.73 298.12, 177.37 298.7, -0.18 300.09 M406.19 299.02 C313.92 301.17, 221.02 301.16, 0.3 299.1 M-1.25 298.54 C-2.69 193.89, -2.37 89.96, 0.26 -0.43 M-0.17 299.23 C-0.15 213.08, -0.56 126.75, -0.21 -0.63" stroke="#000000" stroke-width="1" fill="none"></path></g></svg>